<?xml version="1.0" encoding="UTF-8"?>
<!DOCTYPE svg PUBLIC "-//W3C//DTD SVG 1.1//EN" "http://www.w3.org/Graphics/SVG/1.1/DTD/svg11.dtd">
<!-- Creator: CorelDRAW -->
<svg xmlns="http://www.w3.org/2000/svg" xml:space="preserve" width="1914px" height="450px" version="1.1" style="shape-rendering:geometricPrecision; text-rendering:geometricPrecision; image-rendering:optimizeQuality; fill-rule:evenodd; clip-rule:evenodd"
viewBox="0 0 2040.72 479.98"
 xmlns:xlink="http://www.w3.org/1999/xlink"
 xmlns:xodm="http://www.corel.com/coreldraw/odm/2003">
 <defs>
  <style type="text/css">
   <![CDATA[
    .fil2 {fill:#FEFEFE}
    .fil1 {fill:#006DB3}
    .fil3 {fill:#009CFC}
    .fil4 {fill:#FEFEFE;fill-rule:nonzero}
    .fil5 {fill:#0090E9;fill-rule:nonzero}
    .fil0 {fill:url(#id0)}
   ]]>
  </style>
  <linearGradient id="id0" gradientUnits="userSpaceOnUse" x1="62.61" y1="56.18" x2="418.49" y2="436.36">
   <stop offset="0" style="stop-opacity:1; stop-color:#009EFF"/>
   <stop offset="1" style="stop-opacity:1; stop-color:#0076C0"/>
  </linearGradient>
 </defs>
 <g id="Layer_x0020_1">
  <metadata id="CorelCorpID_0Corel-Layer"/>
  <g id="_2585111683776">
   <g>
    <path class="fil0" d="M119.04 0l241.9 0c65.48,0 119.04,53.57 119.04,119.04l0 241.91c0,65.47 -53.56,119.03 -119.04,119.03l-241.9 0c-65.47,0 -119.04,-53.56 -119.04,-119.03l0 -241.91c0,-65.47 53.57,-119.04 119.04,-119.04z"/>
    <path class="fil1" d="M376.74 478.93c-5.72,0.69 -11.51,1.05 -17.32,1.05l-75.53 0 -148.4 -146.24c3.18,2.55 7.21,4.07 11.57,4.07l185.33 0c10.2,0 18.55,-8.34 18.55,-18.55l0 -101.7 10.08 0c0.27,0.01 0.54,0.02 0.81,0.02 0.27,0 0.55,-0.01 0.82,-0.02l0.03 0 0 0c10.01,-0.45 18,-8.71 18,-18.83 0,-5.13 -2.05,-9.78 -5.37,-13.17l104.67 104.25 0 71.14c0,60.11 -45.16,110.19 -103.24,117.98zm-243.98 -147.89l-0.02 -0.01 0 -0.01 0.02 0.02zm-4.25 -96.27l-23.14 -22.19 0.01 0c3.16,2.92 7.33,4.77 11.93,4.98l0 0 0.03 0c0.27,0.01 0.54,0.02 0.82,0.02 0.27,0 0.54,-0.01 0.81,-0.02l9.54 0 0 17.21z"/>
    <g>
     <path class="fil2" d="M350.94 217.56l0 101.7c0,10.21 -8.35,18.55 -18.55,18.55l-185.33 0c-10.2,0 -18.55,-8.34 -18.55,-18.55l0 -101.7 -9.54 0c-0.27,0.01 -0.54,0.02 -0.81,0.02 -0.28,0 -0.55,-0.01 -0.82,-0.02l-0.03 0 0 0c-10.02,-0.45 -18,-8.71 -18,-18.83 0,-5.44 2.31,-10.35 6,-13.79l0 0 0.01 -0.01c0.52,-0.48 1.07,-0.94 1.64,-1.36l111.35 -92.53 0.01 0c5.74,-5.17 13.34,-8.32 21.67,-8.32 8.34,0 15.93,3.15 21.67,8.32l0.01 0 111.36 92.53c0.57,0.42 1.11,0.88 1.63,1.36l0.02 0.01 0 0c3.69,3.44 6,8.35 6,13.79 0,10.12 -7.99,18.38 -18,18.83l0 0 -0.03 0c-0.27,0.01 -0.55,0.02 -0.82,0.02 -0.27,0 -0.54,-0.01 -0.81,-0.02l-10.08 0z"/>
     <path class="fil3" d="M237.61 313.56c-5.32,-2.34 -15.79,-11.06 -26.21,-20.84 -17.3,-16.22 -39.94,-36.12 -45.01,-60.49 -4.88,-23.43 7.05,-45.01 28.72,-52.37 14.51,-4.93 31.53,-2.47 44.59,9.72 13.07,-12.19 30.08,-14.65 44.6,-9.72 21.66,7.36 33.6,28.94 28.72,52.37 -5.08,24.37 -27.71,44.27 -45.01,60.49 -10.31,9.67 -20.67,18.32 -26.04,20.76 -1.91,0.87 -2.47,0.91 -4.36,0.08z"/>
     <polygon class="fil2" points="231.27,214.6 248.76,214.6 248.76,232.73 266.9,232.73 266.9,250.22 248.76,250.22 248.76,268.36 231.27,268.36 231.27,250.22 213.14,250.22 213.14,232.73 231.27,232.73 "/>
     <path class="fil4" d="M153.53 380.49l0 9.84c0,1.56 -0.35,2.73 -1.06,3.5 -0.7,0.78 -1.64,1.17 -2.78,1.17 -1.12,0 -2.03,-0.39 -2.73,-1.17 -0.69,-0.77 -1.04,-1.94 -1.04,-3.5l0 -11.79c0,-1.87 -0.07,-3.32 -0.2,-4.34 -0.12,-1.03 -0.46,-1.88 -1.02,-2.54 -0.57,-0.66 -1.45,-0.99 -2.67,-0.99 -2.43,0 -4.02,0.83 -4.79,2.5 -0.77,1.66 -1.16,4.04 -1.16,7.15l0 10.01c0,1.54 -0.35,2.71 -1.04,3.5 -0.7,0.78 -1.61,1.17 -2.74,1.17 -1.12,0 -2.04,-0.39 -2.75,-1.17 -0.72,-0.79 -1.08,-1.96 -1.08,-3.5l0 -21.18c0,-1.39 0.33,-2.46 0.97,-3.18 0.63,-0.72 1.48,-1.08 2.52,-1.08 1.02,0 1.86,0.34 2.54,1.02 0.68,0.67 1.02,1.61 1.02,2.8l0 0.71c1.28,-1.54 2.66,-2.67 4.12,-3.39 1.46,-0.72 3.09,-1.08 4.88,-1.08 1.87,0 3.46,0.37 4.8,1.11 1.35,0.74 2.45,1.86 3.31,3.36 1.25,-1.52 2.59,-2.64 4.02,-3.37 1.42,-0.73 3.01,-1.1 4.75,-1.1 2.03,0 3.77,0.39 5.23,1.19 1.46,0.8 2.57,1.93 3.29,3.42 0.63,1.33 0.94,3.44 0.94,6.31l0 14.46c0,1.56 -0.35,2.73 -1.05,3.5 -0.71,0.78 -1.64,1.17 -2.79,1.17 -1.12,0 -2.04,-0.39 -2.75,-1.17 -0.71,-0.79 -1.07,-1.96 -1.07,-3.5l0 -12.45c0,-1.59 -0.07,-2.86 -0.21,-3.82 -0.14,-0.96 -0.5,-1.76 -1.1,-2.42 -0.59,-0.65 -1.5,-0.97 -2.71,-0.97 -0.98,0 -1.91,0.28 -2.79,0.87 -0.87,0.57 -1.55,1.35 -2.05,2.33 -0.54,1.24 -0.81,3.45 -0.81,6.62zm163.5 -10.16l0 21.51c0,2.47 -0.26,4.58 -0.78,6.35 -0.53,1.78 -1.37,3.24 -2.52,4.4 -1.16,1.15 -2.68,2.01 -4.55,2.57 -1.87,0.56 -4.2,0.84 -6.98,0.84 -2.56,0 -4.83,-0.36 -6.84,-1.07 -2,-0.72 -3.55,-1.64 -4.64,-2.77 -1.09,-1.13 -1.62,-2.29 -1.62,-3.48 0,-0.91 0.3,-1.64 0.91,-2.22 0.62,-0.56 1.37,-0.85 2.24,-0.85 1.08,0 2.03,0.47 2.85,1.44 0.4,0.48 0.81,0.97 1.23,1.47 0.42,0.49 0.9,0.92 1.41,1.27 0.51,0.35 1.14,0.62 1.86,0.79 0.72,0.17 1.55,0.25 2.49,0.25 1.92,0 3.4,-0.26 4.45,-0.79 1.07,-0.54 1.81,-1.28 2.22,-2.24 0.43,-0.96 0.68,-1.98 0.76,-3.08 0.07,-1.09 0.12,-2.84 0.15,-5.26 -1.14,1.59 -2.45,2.8 -3.94,3.62 -1.49,0.84 -3.27,1.25 -5.33,1.25 -2.48,0 -4.65,-0.62 -6.5,-1.89 -1.85,-1.27 -3.27,-3.04 -4.27,-5.33 -0.99,-2.28 -1.49,-4.9 -1.49,-7.89 0,-2.23 0.31,-4.24 0.91,-6.02 0.61,-1.79 1.47,-3.31 2.59,-4.53 1.12,-1.23 2.41,-2.16 3.88,-2.79 1.47,-0.62 3.08,-0.93 4.83,-0.93 2.09,0 3.91,0.4 5.45,1.21 1.54,0.8 2.96,2.07 4.28,3.79l0 -1c0,-1.29 0.32,-2.29 0.95,-3 0.63,-0.71 1.45,-1.06 2.45,-1.06 1.42,0 2.38,0.47 2.85,1.41 0.47,0.93 0.7,2.28 0.7,4.03zm-21.44 9.39c0,3 0.66,5.27 1.96,6.81 1.32,1.54 3,2.3 5.08,2.3 1.23,0 2.39,-0.33 3.49,-0.99 1.09,-0.65 1.98,-1.65 2.66,-2.98 0.69,-1.33 1.03,-2.94 1.03,-4.84 0,-3.02 -0.66,-5.37 -1.99,-7.06 -1.32,-1.67 -3.07,-2.52 -5.24,-2.52 -2.11,0 -3.81,0.81 -5.08,2.42 -1.27,1.61 -1.91,3.9 -1.91,6.86zm55.29 0.23c0,2.22 -0.35,4.25 -1.03,6.11 -0.69,1.86 -1.69,3.46 -2.99,4.79 -1.3,1.35 -2.86,2.36 -4.67,3.08 -1.8,0.71 -3.84,1.07 -6.1,1.07 -2.25,0 -4.27,-0.36 -6.06,-1.08 -1.78,-0.72 -3.34,-1.76 -4.65,-3.11 -1.31,-1.35 -2.31,-2.94 -2.99,-4.77 -0.67,-1.84 -1.01,-3.87 -1.01,-6.09 0,-2.25 0.34,-4.3 1.02,-6.16 0.7,-1.86 1.68,-3.46 2.97,-4.78 1.28,-1.32 2.84,-2.33 4.66,-3.05 1.83,-0.71 3.85,-1.07 6.06,-1.07 2.24,0 4.28,0.36 6.1,1.08 1.83,0.72 3.39,1.76 4.7,3.1 1.3,1.34 2.29,2.93 2.97,4.78 0.67,1.85 1.02,3.88 1.02,6.1zm-7.45 0c0,-3.01 -0.66,-5.36 -1.99,-7.04 -1.33,-1.68 -3.11,-2.52 -5.35,-2.52 -1.45,0 -2.72,0.37 -3.82,1.12 -1.11,0.75 -1.96,1.86 -2.55,3.32 -0.6,1.47 -0.9,3.18 -0.9,5.12 0,1.94 0.3,3.63 0.88,5.08 0.59,1.44 1.43,2.55 2.52,3.32 1.09,0.77 2.39,1.15 3.87,1.15 2.24,0 4.02,-0.84 5.35,-2.54 1.33,-1.68 1.99,-4.02 1.99,-7.01zm-144.7 1.83l-14.49 0c0.02,1.68 0.36,3.17 1.02,4.45 0.66,1.29 1.54,2.25 2.63,2.9 1.09,0.66 2.31,0.98 3.62,0.98 0.89,0 1.7,-0.1 2.43,-0.31 0.74,-0.21 1.44,-0.53 2.13,-0.97 0.69,-0.45 1.32,-0.92 1.9,-1.43 0.58,-0.51 1.33,-1.2 2.26,-2.07 0.37,-0.32 0.91,-0.49 1.61,-0.49 0.76,0 1.39,0.22 1.86,0.63 0.46,0.41 0.7,1 0.7,1.76 0,0.67 -0.27,1.45 -0.79,2.34 -0.52,0.89 -1.31,1.76 -2.38,2.57 -1.05,0.82 -2.38,1.51 -3.98,2.05 -1.6,0.54 -3.44,0.81 -5.52,0.81 -4.76,0 -8.45,-1.36 -11.09,-4.07 -2.64,-2.72 -3.95,-6.39 -3.95,-11.04 0,-2.19 0.32,-4.22 0.97,-6.09 0.65,-1.87 1.6,-3.48 2.84,-4.82 1.25,-1.33 2.79,-2.36 4.61,-3.07 1.83,-0.72 3.86,-1.08 6.08,-1.08 2.9,0 5.38,0.62 7.44,1.84 2.08,1.22 3.62,2.79 4.66,4.74 1.03,1.93 1.55,3.91 1.55,5.91 0,1.87 -0.54,3.08 -1.61,3.63 -1.06,0.55 -2.56,0.83 -4.5,0.83zm-14.49 -4.22l13.43 0c-0.18,-2.53 -0.86,-4.42 -2.05,-5.68 -1.18,-1.25 -2.74,-1.88 -4.67,-1.88 -1.85,0 -3.36,0.64 -4.55,1.91 -1.19,1.28 -1.91,3.16 -2.16,5.65zm47.12 13.21l0 -0.73c-0.99,1.14 -1.97,2.06 -2.94,2.78 -0.96,0.71 -2.02,1.26 -3.15,1.63 -1.13,0.37 -2.36,0.55 -3.7,0.55 -1.77,0 -3.41,-0.38 -4.92,-1.13 -1.51,-0.75 -2.82,-1.81 -3.92,-3.21 -1.11,-1.39 -1.94,-3.03 -2.51,-4.91 -0.57,-1.88 -0.86,-3.92 -0.86,-6.1 0,-4.63 1.13,-8.24 3.39,-10.83 2.26,-2.58 5.24,-3.87 8.93,-3.87 2.14,0 3.93,0.37 5.4,1.1 1.46,0.73 2.9,1.86 4.28,3.39l0 -10.94c0,-1.52 0.31,-2.67 0.91,-3.44 0.61,-0.78 1.47,-1.17 2.59,-1.17 1.13,0 1.99,0.36 2.6,1.07 0.6,0.72 0.9,1.77 0.9,3.16l0 32.65c0,1.41 -0.32,2.47 -0.97,3.18 -0.66,0.7 -1.5,1.05 -2.53,1.05 -1,0 -1.85,-0.37 -2.5,-1.1 -0.66,-0.73 -1,-1.78 -1,-3.13zm-14.55 -10.87c0,2.01 0.31,3.71 0.93,5.13 0.62,1.41 1.48,2.46 2.57,3.17 1.08,0.72 2.27,1.08 3.54,1.08 1.31,0 2.5,-0.34 3.57,-1.02 1.07,-0.68 1.94,-1.71 2.57,-3.11 0.64,-1.41 0.97,-3.15 0.97,-5.25 0,-1.96 -0.33,-3.66 -0.97,-5.07 -0.63,-1.43 -1.51,-2.51 -2.6,-3.26 -1.09,-0.75 -2.28,-1.13 -3.59,-1.13 -1.35,0 -2.57,0.39 -3.63,1.15 -1.07,0.77 -1.89,1.87 -2.48,3.31 -0.59,1.44 -0.88,3.11 -0.88,5zm36.39 -10.81l0 21.41c0,1.48 -0.35,2.6 -1.06,3.36 -0.7,0.76 -1.59,1.14 -2.67,1.14 -1.09,0 -1.97,-0.39 -2.64,-1.17 -0.68,-0.77 -1.02,-1.88 -1.02,-3.33l0 -21.18c0,-1.48 0.34,-2.58 1.02,-3.32 0.67,-0.74 1.55,-1.11 2.64,-1.11 1.08,0 1.97,0.37 2.67,1.11 0.71,0.74 1.06,1.78 1.06,3.09zm-3.66 -7.65c-1.03,0 -1.91,-0.31 -2.64,-0.94 -0.73,-0.63 -1.09,-1.53 -1.09,-2.69 0,-1.03 0.37,-1.89 1.12,-2.57 0.75,-0.67 1.62,-1.02 2.61,-1.02 0.96,0 1.81,0.31 2.55,0.92 0.74,0.62 1.11,1.51 1.11,2.67 0,1.14 -0.36,2.03 -1.08,2.67 -0.73,0.64 -1.58,0.96 -2.58,0.96zm27.37 30.5l-5.37 -7.88 -5.5 7.88c-0.79,1.1 -1.47,1.89 -2.02,2.36 -0.55,0.47 -1.25,0.7 -2.1,0.7 -0.93,0 -1.74,-0.29 -2.4,-0.88 -0.65,-0.59 -0.99,-1.26 -0.99,-2.02 0,-0.77 0.51,-1.89 1.52,-3.33l6.7 -9.6 -5.94 -8.01c-1.03,-1.32 -1.55,-2.46 -1.55,-3.45 0,-0.76 0.31,-1.42 0.93,-1.98 0.61,-0.56 1.42,-0.84 2.41,-0.84 0.87,0 1.58,0.24 2.15,0.73 0.57,0.49 1.24,1.26 2,2.31l4.79 6.57 4.67 -6.57c0.78,-1.09 1.45,-1.86 2.02,-2.34 0.57,-0.47 1.27,-0.7 2.13,-0.7 0.97,0 1.78,0.28 2.42,0.82 0.64,0.56 0.97,1.23 0.97,2 0,0.57 -0.13,1.11 -0.39,1.61 -0.27,0.52 -0.67,1.13 -1.22,1.84l-5.93 8.01 6.69 9.6c1.05,1.5 1.58,2.63 1.58,3.39 0,0.78 -0.33,1.44 -0.97,2 -0.66,0.56 -1.47,0.84 -2.42,0.84 -0.85,0 -1.57,-0.24 -2.16,-0.73 -0.58,-0.49 -1.26,-1.27 -2.02,-2.33z"/>
    </g>
   </g>
   <path class="fil5" d="M681.9 311.31l-38.41 -152.53 0 165.24c0,9.15 -2.07,16 -6.13,20.57 -4.07,4.58 -9.48,6.86 -16.17,6.86 -6.52,0 -11.88,-2.28 -16,-6.8 -4.13,-4.52 -6.19,-11.37 -6.19,-20.63l0 -189.43c0,-10.48 2.73,-17.51 8.14,-21.19 5.46,-3.62 12.82,-5.46 22.02,-5.46l15.05 0c9.03,0 15.56,0.84 19.63,2.45 4.07,1.62 7.13,4.57 9.08,8.81 1.95,4.24 4.18,11.15 6.69,20.74l34.79 131.23 34.79 -131.23c2.51,-9.59 4.74,-16.5 6.69,-20.74 1.95,-4.24 4.96,-7.19 9.03,-8.81 4.07,-1.61 10.65,-2.45 19.68,-2.45l14.99 0c9.26,0 16.62,1.84 22.08,5.46 5.41,3.68 8.14,10.71 8.14,21.19l0 189.43c0,9.15 -2.06,16 -6.13,20.57 -4.07,4.58 -9.54,6.86 -16.34,6.86 -6.41,0 -11.7,-2.28 -15.83,-6.86 -4.13,-4.57 -6.19,-11.42 -6.19,-20.57l0 -165.24 -38.41 152.53c-2.51,9.87 -4.51,17.17 -6.13,21.8 -1.56,4.57 -4.46,8.81 -8.7,12.6 -4.29,3.85 -10.14,5.74 -17.67,5.74 -5.69,0 -10.48,-1.23 -14.38,-3.68 -3.9,-2.45 -6.97,-5.57 -9.15,-9.36 -2.17,-3.85 -3.9,-8.03 -5.12,-12.66 -1.29,-4.63 -2.57,-9.48 -3.85,-14.44zm319.1 -39.47l-87.24 0c0.11,10.15 2.17,19.07 6.13,26.82 3.96,7.75 9.25,13.54 15.83,17.45 6.58,3.95 13.88,5.91 21.8,5.91 5.35,0 10.2,-0.62 14.61,-1.9 4.46,-1.23 8.69,-3.18 12.82,-5.85 4.18,-2.68 7.97,-5.52 11.43,-8.59 3.51,-3.06 8.03,-7.19 13.6,-12.43 2.29,-1.95 5.52,-2.96 9.76,-2.96 4.57,0 8.3,1.29 11.15,3.8 2.78,2.45 4.23,6.02 4.23,10.59 0,4.01 -1.61,8.69 -4.74,14.1 -3.17,5.35 -7.91,10.54 -14.32,15.44 -6.36,4.97 -14.33,9.09 -23.97,12.33 -9.65,3.28 -20.74,4.9 -33.23,4.9 -28.66,0 -50.9,-8.19 -66.79,-24.53 -15.89,-16.33 -23.8,-38.46 -23.8,-66.45 0,-13.16 1.95,-25.42 5.85,-36.68 3.9,-11.27 9.64,-20.91 17.12,-28.99 7.52,-8.03 16.78,-14.22 27.76,-18.51 10.98,-4.29 23.19,-6.47 36.57,-6.47 17.45,0 32.39,3.68 44.82,11.04 12.49,7.36 21.8,16.84 28.04,28.54 6.19,11.65 9.31,23.53 9.31,35.63 0,11.2 -3.23,18.5 -9.64,21.85 -6.41,3.29 -15.44,4.96 -27.1,4.96zm-87.24 -25.42l80.83 0c-1.06,-15.22 -5.18,-26.59 -12.32,-34.17 -7.13,-7.53 -16.5,-11.32 -28.15,-11.32 -11.15,0 -20.24,3.85 -27.37,11.48 -7.14,7.7 -11.49,19.01 -12.99,34.01zm283.7 79.55l0 -4.4c-5.96,6.86 -11.87,12.43 -17.73,16.72 -5.79,4.3 -12.15,7.59 -18.95,9.82 -6.8,2.23 -14.22,3.34 -22.3,3.34 -10.65,0 -20.52,-2.28 -29.6,-6.8 -9.09,-4.52 -17.01,-10.93 -23.64,-19.34 -6.63,-8.37 -11.65,-18.23 -15.11,-29.55 -3.4,-11.32 -5.13,-23.58 -5.13,-36.74 0,-27.88 6.8,-49.62 20.41,-65.17 13.6,-15.55 31.55,-23.36 53.74,-23.36 12.88,0 23.69,2.23 32.5,6.63 8.81,4.41 17.45,11.21 25.81,20.41l0 -65.84c0,-9.14 1.84,-16.06 5.47,-20.74 3.68,-4.68 8.86,-7.02 15.61,-7.02 6.74,0 11.93,2.17 15.61,6.46 3.62,4.3 5.46,10.65 5.46,19.01l0 196.57c0,8.48 -1.95,14.89 -5.85,19.13 -3.96,4.23 -9.04,6.35 -15.22,6.35 -6.08,0 -11.15,-2.23 -15.11,-6.63 -3.96,-4.41 -5.97,-10.71 -5.97,-18.85zm-87.64 -65.45c0,12.1 1.9,22.36 5.64,30.89 3.73,8.47 8.86,14.83 15.44,19.12 6.52,4.29 13.66,6.47 21.35,6.47 7.86,0 15,-2.06 21.46,-6.13 6.47,-4.07 11.66,-10.32 15.5,-18.74 3.85,-8.47 5.8,-18.95 5.8,-31.61 0,-11.81 -1.95,-22.02 -5.8,-30.55 -3.84,-8.58 -9.08,-15.1 -15.66,-19.62 -6.58,-4.51 -13.77,-6.74 -21.63,-6.74 -8.14,0 -15.45,2.28 -21.86,6.91 -6.41,4.63 -11.37,11.26 -14.94,19.9 -3.51,8.7 -5.3,18.73 -5.3,30.1zm219.1 -65.05l0 128.89c0,8.92 -2.12,15.66 -6.36,20.23 -4.23,4.58 -9.59,6.86 -16.11,6.86 -6.52,0 -11.82,-2.34 -15.89,-7.02 -4.07,-4.69 -6.13,-11.38 -6.13,-20.07l0 -127.56c0,-8.86 2.06,-15.49 6.13,-19.95 4.07,-4.46 9.37,-6.69 15.89,-6.69 6.52,0 11.88,2.23 16.11,6.69 4.24,4.46 6.36,10.7 6.36,18.62zm-22.02 -46.05c-6.19,0 -11.49,-1.9 -15.89,-5.69 -4.4,-3.79 -6.58,-9.2 -6.58,-16.17 0,-6.24 2.23,-11.42 6.75,-15.49 4.51,-4.07 9.75,-6.14 15.72,-6.14 5.8,0 10.87,1.84 15.33,5.52 4.46,3.74 6.69,9.09 6.69,16.11 0,6.86 -2.18,12.21 -6.52,16.06 -4.35,3.85 -9.48,5.8 -15.5,5.8zm164.79 183.58l-32.33 -47.44 -33.12 47.44c-4.79,6.63 -8.86,11.37 -12.15,14.21 -3.35,2.85 -7.53,4.24 -12.66,4.24 -5.63,0 -10.48,-1.78 -14.43,-5.29 -3.96,-3.57 -5.97,-7.59 -5.97,-12.16 0,-4.68 3.07,-11.37 9.14,-20.07l40.31 -57.81 -35.74 -48.22c-6.18,-7.92 -9.31,-14.83 -9.31,-20.74 0,-4.57 1.84,-8.59 5.58,-11.93 3.68,-3.4 8.53,-5.07 14.49,-5.07 5.24,0 9.54,1.45 12.99,4.4 3.4,2.96 7.42,7.58 11.99,13.88l28.88 39.58 28.09 -39.58c4.69,-6.52 8.76,-11.2 12.16,-14.05 3.45,-2.84 7.69,-4.23 12.82,-4.23 5.85,0 10.76,1.67 14.61,4.96 3.84,3.34 5.79,7.36 5.79,12.04 0,3.4 -0.78,6.63 -2.34,9.7 -1.61,3.12 -4.01,6.8 -7.3,11.04l-35.74 48.22 40.31 57.81c6.3,9.03 9.48,15.84 9.48,20.41 0,4.68 -1.95,8.69 -5.86,12.04 -3.95,3.4 -8.8,5.07 -14.55,5.07 -5.12,0 -9.42,-1.45 -12.99,-4.4 -3.51,-2.96 -7.58,-7.64 -12.15,-14.05zm299.43 -82.9l0 45.88c0,6.13 -0.62,10.98 -1.79,14.61 -1.22,3.68 -3.4,6.97 -6.63,9.86 -3.23,2.96 -7.36,5.8 -12.38,8.53 -14.44,7.81 -28.37,13.5 -41.75,17.12 -13.38,3.57 -27.99,5.35 -43.76,5.35 -18.4,0 -35.18,-2.84 -50.29,-8.47 -15.16,-5.69 -28.04,-13.88 -38.69,-24.7 -10.7,-10.76 -18.9,-23.8 -24.58,-39.14 -5.75,-15.38 -8.59,-32.5 -8.59,-51.45 0,-18.62 2.79,-35.62 8.31,-51.12 5.57,-15.44 13.71,-28.55 24.53,-39.36 10.75,-10.76 23.86,-19.01 39.35,-24.7 15.45,-5.74 32.95,-8.58 52.58,-8.58 16.11,0 30.38,2.17 42.75,6.46 12.44,4.3 22.53,9.7 30.22,16.23 7.75,6.52 13.55,13.43 17.51,20.73 3.9,7.31 5.85,13.78 5.85,19.46 0,6.08 -2.29,11.26 -6.8,15.56 -4.52,4.34 -9.93,6.46 -16.28,6.46 -3.46,0 -6.8,-0.78 -10.04,-2.45 -3.23,-1.62 -5.91,-3.9 -8.08,-6.8 -6.02,-9.37 -11.04,-16.45 -15.16,-21.24 -4.18,-4.74 -9.76,-8.81 -16.73,-12.04 -7.02,-3.29 -16,-4.91 -26.87,-4.91 -11.2,0 -21.24,1.95 -30.05,5.8 -8.81,3.84 -16.33,9.48 -22.58,16.83 -6.24,7.31 -11.03,16.34 -14.38,26.99 -3.29,10.7 -4.96,22.52 -4.96,35.45 0,28.1 6.47,49.67 19.34,64.84 12.88,15.11 30.89,22.69 53.91,22.69 11.21,0 21.75,-1.45 31.61,-4.41 9.81,-2.95 19.85,-7.13 29.94,-12.59l0 -38.86 -37.52 0c-9.03,0 -15.89,-1.34 -20.51,-4.07 -4.63,-2.73 -6.92,-7.36 -6.92,-13.94 0,-5.3 1.95,-9.75 5.8,-13.21 3.85,-3.51 9.09,-5.24 15.78,-5.24l55.02 0c6.75,0 12.49,0.61 17.17,1.78 4.68,1.23 8.48,3.9 11.32,8.03 2.9,4.13 4.35,10.37 4.35,18.62zm151.52 -146.17c24.87,0 46.16,5.01 63.95,15.1 17.78,10.04 31.27,24.37 40.41,42.93 9.15,18.57 13.72,40.36 13.72,65.39 0,18.51 -2.51,35.35 -7.53,50.46 -5.02,15.16 -12.49,28.26 -22.52,39.36 -10.04,11.09 -22.3,19.56 -36.91,25.47 -14.6,5.86 -31.27,8.81 -50.11,8.81 -18.74,0 -35.52,-3.01 -50.29,-9.09 -14.83,-6.02 -27.15,-14.55 -37.07,-25.53 -9.93,-10.98 -17.4,-24.19 -22.47,-39.69 -5.07,-15.44 -7.58,-32.17 -7.58,-50.12 0,-18.4 2.62,-35.23 7.92,-50.62 5.29,-15.33 12.93,-28.38 22.96,-39.19 9.98,-10.76 22.19,-19.01 36.58,-24.7 14.32,-5.74 30.66,-8.58 48.94,-8.58zm68.91 123.09c0,-17.51 -2.84,-32.73 -8.48,-45.6 -5.68,-12.83 -13.77,-22.53 -24.25,-29.16 -10.48,-6.58 -22.57,-9.87 -36.18,-9.87 -9.64,0 -18.62,1.84 -26.81,5.47 -8.25,3.68 -15.33,8.97 -21.24,15.94 -5.91,6.97 -10.59,15.89 -14.05,26.7 -3.4,10.88 -5.13,23.03 -5.13,36.52 0,13.66 1.73,25.92 5.13,36.96 3.46,10.98 8.3,20.13 14.55,27.37 6.24,7.25 13.43,12.66 21.52,16.23 8.14,3.62 17,5.4 26.7,5.4 12.43,0 23.81,-3.12 34.23,-9.31 10.37,-6.18 18.62,-15.77 24.81,-28.76 6.13,-12.94 9.2,-28.94 9.2,-47.89z"/>
  </g>
 </g>
</svg>
